PathFileType	3	(X/Y/Z)	D:\minhoCalibration\240510\subject3_KPNP\preferred\preferred07.trc
DataRate	CameraRate	NumFrames	NumMarkers	Units	OrigDataRate	OrigDataStartFrame	OrigNumFrames
200.0	200.0	12	10	mm	200.0	189	126	
Frame#	Time	Left_Ankle_Outer1			Left_Ankle_Inner1			Left_Knee_Outer1			Left_Knee_Inner1			Left_Wrist1			Right_Wrist1			Right_Knee_Inner1			Right_Knee_Outer1			Right_Ankle_Inner1			Right_Ankle_Outer1			
		X1	Y1	Z1	X2	Y2	Z2	X3	Y3	Z3	X4	Y4	Z4	X5	Y5	Z5	X6	Y6	Z6	X7	Y7	Z7	X8	Y8	Z8	X9	Y9	Z9	X10	Y10	Z10	
189	0.935	-286.49954	110.69759	-518.59015	-342.25858	126.80038	-516.11981	-181.54793	528.63989	-401.58405	-275.39023	533.55408	-362.78522	-128.38065	929.72705	-554.83032	-479.03696	1034.873	-466.99374	-324.55917	873.8302	-91.521477	-428.16959	919.362	-102.40904	-396.62552	579.90814	204.44943	-496.87488	602.35492	195.5627
190	0.94	-286.77039	109.31841	-519.81891	-342.66672	125.14576	-517.73236	-182.99931	527.20813	-402.79413	-277.6712	531.89551	-365.43582	-127.33665	930.09216	-552.17456	-479.96017	1030.1306	-468.84949	-328.09451	863.67822	-92.552689	-432.4238	908.07349	-104.39022	-404.5639	554.57196	187.66846	-503.55606	575.39844	177.0746
191	0.945	-287.41565	107.66599	-520.8363	-343.19412	123.3864	-519.09814	-184.49573	525.92096	-403.8544	-279.72101	530.34973	-368.04813	-125.97922	930.29395	-549.74261	-480.83414	1026.1552	-470.3255	-331.8064	853.00439	-93.858635	-437.28064	896.71631	-106.35091	-411.28757	529.70673	169.48512	-511.16742	550.32788	157.60686
192	0.95	-288.04831	106.31715	-521.86987	-343.9942	121.75416	-520.47815	-186.2541	524.43555	-404.61884	-282.02399	528.88489	-370.79172	-124.69833	929.9906	-547.63818	-481.55185	1022.6611	-471.71735	-335.60461	841.79944	-95.348083	-441.52203	884.80219	-109.03365	-419.95828	505.55627	151.72896	-518.50745	525.23511	136.88341
193	0.955	-288.99991	104.81464	-522.70142	-344.82739	120.34129	-521.79034	-187.62691	523.17499	-405.15674	-284.57343	527.56677	-373.444	-123.90947	929.53644	-545.39954	-482.34076	1019.7545	-472.74423	-339.69534	830.15698	-97.132858	-445.8949	872.49341	-111.95261	-434.02036	478.66565	138.3308	-525.39758	500.965	115.10226
194	0.96	-289.83429	103.52259	-523.55707	-345.83771	118.52868	-522.85925	-189.3856	522.01965	-405.70407	-287.39529	526.10016	-375.96127	-123.05317	929.02777	-543.31415	-482.97681	1016.7395	-473.89301	-343.9404	818.13422	-99.145622	-450.04895	859.81378	-115.21886	-433.37137	457.59668	110.65459	-532.31177	477.81195	92.166908
195	0.965	-291.66388	102.03587	-524.01361	-347.05743	117.01917	-523.81897	-191.31157	520.76611	-405.99057	-289.89185	524.86786	-378.4473	-123.05321	927.96533	-541.37659	-483.3627	1013.5118	-475.36096	-348.1098	805.80347	-101.4706	-454.23724	847.40912	-118.00326	-439.92313	435.39743	89.227501	-538.59772	455.09918	68.744057
196	0.97	-292.41858	100.96507	-524.99078	-348.25009	115.5675	-524.7583	-193.27802	519.55389	-406.47946	-292.52432	523.80499	-380.64917	-122.47874	926.88861	-539.67175	-483.9306	1011.0336	-476.23547	-352.31427	793.12311	-104.18888	-458.13962	834.35431	-122.12753	-446.58163	414.06818	67.63308	-544.49823	433.70529	44.687828
197	0.975	-293.6813	99.740852	-525.6673	-349.50397	114.12986	-525.72345	-194.93529	518.56616	-406.51669	-295.02417	522.77814	-382.86407	-121.75914	925.81018	-538.06067	-484.20148	1008.2615	-477.51721	-356.51376	780.0625	-107.255	-462.50726	821.83905	-125.83049	-451.6846	393.08197	43.858654	-549.36273	412.77646	19.493462
198	0.98	-294.76956	98.486053	-526.32098	-350.59204	112.71111	-526.53461	-196.48878	517.4942	-406.4613	-297.22147	521.67841	-384.96017	-121.65685	924.56189	-536.5498	-484.48724	1005.4927	-478.72668	-360.67078	767.01025	-111.26174	-466.47156	809.16779	-130.81804	-457.58984	372.6066	19.884333	-554.53217	392.87106	-6.239666
199	0.985	-296.00241	96.956696	-526.92285	-351.69293	111.23391	-527.44592	-197.91283	516.40668	-406.43008	-299.08578	520.49438	-386.97119	-121.65181	923.30127	-535.05768	-485.32245	1002.5925	-478.85809	-365.32596	753.46704	-115.61529	-470.76862	796.34198	-136.24899	-462.2049	353.19983	-5.4334555	-558.55139	373.93747	-32.633373
200	0.99	-296.66431	95.65921	-527.66913	-352.42792	109.74135	-528.36444	-199.63486	515.12561	-406.23392	-300.80533	519.76819	-388.3085	-121.70026	922.02252	-533.66095	-485.17328	999.8277	-481.02887	-369.67007	739.92682	-120.4331	-474.983	784.60516	-141.31897	-466.95728	334.7709	-31.30262	-562.78876	356.8764	-59.234783
